<svg xmlns="http://www.w3.org/2000/svg" xmlns:xlink="http://www.w3.org/1999/xlink" viewBox="0 0 1079.12 198.08"><defs><style>.cls-1{fill:none;}.cls-2{fill:#2edffc;}.cls-3{fill:#27bdf3;}.cls-4{fill:#fad207;}.cls-5{fill:#faa515;}.cls-6{fill:#fd646f;}.cls-7{fill:#fc4755;}.cls-8{clip-path:url(#clip-path);}.cls-9{fill:#50758d;}.cls-10{fill:#2b597f;}.cls-11{font-size:125.59px;fill:#fff;font-family:Montserrat-Regular, Montserrat;}.cls-12{letter-spacing:-0.01em;}.cls-13{letter-spacing:-0.03em;}.cls-14,.cls-15{font-family:Montserrat-SemiBold, Montserrat;font-weight:600;}.cls-14{letter-spacing:-0.02em;}</style><clipPath id="clip-path" transform="translate(0 -0.04)"><rect class="cls-1" width="198.16" height="198.16"/></clipPath></defs><title>Recurso 1</title><g id="Capa_2" data-name="Capa 2"><g id="Capa_1-2" data-name="Capa 1"><path class="cls-2" d="M94,10.45v42h-.21a51.58,51.58,0,0,0-9.61.89c-1.35.25-2.69.56-4,.91a51.88,51.88,0,0,0-31.34,75.91L37.52,151.42l-25-.27A93.87,93.87,0,0,1,80.22,11.44c1.32-.2,2.65-.36,4-.5a95.42,95.42,0,0,1,9.61-.49Z" transform="translate(0 -0.04)"/><path class="cls-3" d="M94,38.47v14h-.21a51.86,51.86,0,0,0-44.95,77.71l-12.17,7A65.87,65.87,0,0,1,93.79,38.47Z" transform="translate(0 -0.04)"/><path class="cls-4" d="M110.37,196.67a94,94,0,0,1-97.85-45.52l36.37-21a51.82,51.82,0,0,0,44.94,26,51.25,51.25,0,0,0,9.25-.83l17.45,20.46Z" transform="translate(0 -0.04)"/><path class="cls-5" d="M105.52,169.14a66,66,0,0,1-68.81-32l12.17-7a51.85,51.85,0,0,0,44.95,26,53.13,53.13,0,0,0,9.25-.82Z" transform="translate(0 -0.04)"/><path class="cls-6" d="M165.9,164.37h0a93.14,93.14,0,0,1-6.68,7.22h0c-1,.94-1.94,1.85-2.93,2.74l-1.15,1a93.46,93.46,0,0,1-44.75,21.33l-7.29-41.35a51.41,51.41,0,0,0,19-7.52c.51-.33,1-.67,1.52-1,1.1-.77,2.16-1.57,3.19-2.42h0a52.39,52.39,0,0,0,7-6.93l0,0h0l9.14,7.67,20.56,17.25Z" transform="translate(0 -0.04)"/><path class="cls-7" d="M144.47,146.39a65.83,65.83,0,0,1-38.95,22.75l-2.44-13.82a51.83,51.83,0,0,0,30.67-17.93l8,6.75Z" transform="translate(0 -0.04)"/><path class="cls-3" d="M94,10.45l8.13,17.25L94,52.44h-.21a51.58,51.58,0,0,0-9.61.89V10.94a95.42,95.42,0,0,1,9.61-.49Z" transform="translate(0 -0.04)"/><g class="cls-8"><path class="cls-7" d="M165.9,164.37h0a93.14,93.14,0,0,1-6.68,7.22l-32.46-27.24a52.39,52.39,0,0,0,7-6.93l0,0h0l23.12,8.05,6.59,16.87Z" transform="translate(0 -0.04)"/><path class="cls-9" d="M198.16,104.29a103.92,103.92,0,0,1-21.6,63.58,4,4,0,0,1-5.74.63l-29-24.37-8-6.74A51.85,51.85,0,0,0,94,52.44V4a4,4,0,0,1,4.17-4,104.33,104.33,0,0,1,100,104.24Z" transform="translate(0 -0.04)"/></g><path class="cls-10" d="M159.65,104.33a65.59,65.59,0,0,1-15.18,42.06l-2.69-2.25-8-6.75A51.86,51.86,0,0,0,94,52.44v-14a65.86,65.86,0,0,1,65.61,65.86Z" transform="translate(0 -0.04)"/><text class="cls-11" transform="translate(215.78 135.78)"><tspan class="cls-12">D</tspan><tspan class="cls-13" x="102.48" y="0">AT</tspan><tspan x="255.84" y="0">A</tspan><tspan class="cls-14" x="345.89" y="0">W</tspan><tspan class="cls-15" x="486.81" y="0">ORLD</tspan></text></g></g></svg>